<?xml version="1.0" encoding="UTF-8" standalone="no"?>
<!-- Created with Inkscape (http://www.inkscape.org/) -->

<svg
   xmlns:dc="http://purl.org/dc/elements/1.1/"
   xmlns:cc="http://creativecommons.org/ns#"
   xmlns:rdf="http://www.w3.org/1999/02/22-rdf-syntax-ns#"
   xmlns:svg="http://www.w3.org/2000/svg"
   xmlns="http://www.w3.org/2000/svg"
   version="1.1"
   width="690"
   height="260"
   viewBox="0 0 690 260"
   id="svg2">
  <defs
     id="defs4" />
  <metadata
     id="metadata7">
    <rdf:RDF>
      <cc:Work
         rdf:about="">
        <dc:format>image/svg+xml</dc:format>
        <dc:type
           rdf:resource="http://purl.org/dc/dcmitype/StillImage" />
        <dc:title></dc:title>
      </cc:Work>
    </rdf:RDF>
  </metadata>
  <g
     transform="translate(0,-792.36218)"
     id="layer1">
    <path
       d="m 41.428571,402.36218 0,0"
       id="path2989"
       style="fill:none;stroke:#000000;stroke-width:1px;stroke-linecap:butt;stroke-linejoin:miter;stroke-opacity:1" />
    <text
       x="405.71429"
       y="663.79077"
       id="text2995"
       xml:space="preserve"
       style="font-size:72px;font-style:normal;font-variant:normal;font-weight:bold;font-stretch:normal;text-align:start;line-height:125%;letter-spacing:0px;word-spacing:0px;writing-mode:lr-tb;text-anchor:start;fill:#000000;fill-opacity:1;stroke:none;font-family:Lato;-inkscape-font-specification:Lato Bold"><tspan
         x="405.71429"
         y="663.79077"
         id="tspan2997"
         style="font-size:72px;font-style:normal;font-variant:normal;font-weight:300;font-stretch:normal;text-align:start;line-height:125%;writing-mode:lr-tb;text-anchor:start;font-family:Lato;-inkscape-font-specification:Lato Light" /></text>
    <path
       d="m 126.41534,798.36218 c 18.3971,2.5e-4 35.15729,2.88456 50.28063,8.65295 15.12297,5.76886 28.0634,14.03203 38.82133,24.78952 10.91339,10.75792 19.33247,23.85426 25.25725,39.28905 6.08019,15.27924 9.12041,32.50716 9.12067,51.68382 -2.6e-4,19.33281 -3.04048,36.7946 -9.12067,52.38541 -5.92478,15.43504 -14.34386,28.60937 -25.25725,39.52287 -10.75793,10.7578 -23.69836,19.0989 -38.82133,25.0234 -15.12334,5.7687 -31.88353,8.653 -50.28063,8.653 -18.55328,0 -35.469387,-2.8843 -50.748363,-8.653 C 60.543739,1033.7847 47.4474,1025.4436 36.377923,1014.6858 25.464261,1003.7723 16.967232,990.59797 10.88681,975.16293 4.962255,959.57212 1.999988,942.11033 2,922.77752 c -1.2e-5,-19.17666 2.962255,-36.40458 8.88681,-51.68382 6.080422,-15.43479 14.577451,-28.53113 25.491113,-39.28905 11.069477,-10.75749 24.165816,-19.02066 39.289054,-24.78952 15.278976,-5.76839 32.195083,-8.6527 50.748363,-8.65295 m 0,196.21141 c 16.6821,5e-5 28.92094,-5.84653 36.71656,-17.53976 7.95117,-11.849 11.92684,-29.77851 11.92703,-53.78858 -1.9e-4,-24.00984 -3.97586,-41.86139 -11.92703,-53.55473 -7.79562,-11.69298 -20.03446,-17.53956 -36.71656,-17.53975 -17.1501,1.9e-4 -29.700762,5.84677 -37.652012,17.53975 -7.951447,11.69334 -11.927121,29.54489 -11.927034,53.55473 -8.7e-5,24.01007 3.975587,41.93958 11.927034,53.78858 7.95125,11.69323 20.501912,17.53981 37.652012,17.53976"
       id="path3023"
       style="font-size:467.72683716px;font-style:normal;font-variant:normal;font-weight:900;font-stretch:normal;text-align:start;line-height:125%;letter-spacing:0px;word-spacing:0px;writing-mode:lr-tb;text-anchor:start;fill:#ffffff;fill-opacity:1;stroke:none;font-family:Lato;-inkscape-font-specification:Lato Heavy" />
    <path
       d="m 367.63526,851.984 c -1.72485,2.66561 -3.52793,4.62547 -5.40922,5.87959 -1.72485,1.09771 -4.15507,1.64647 -7.29069,1.64628 -3.13594,1.9e-4 -6.35011,-0.78375 -9.64252,-2.35183 -3.29272,-1.5677 -6.97725,-3.21398 -11.05362,-4.93885 -4.07665,-1.88127 -8.78032,-3.60595 -14.111,-5.17404 -5.17417,-1.56769 -11.21053,-2.35163 -18.10913,-2.35183 -10.50496,2e-4 -18.65798,2.19524 -24.45908,6.58513 -5.80127,4.2335 -8.70186,9.87789 -8.70179,16.93321 -7e-5,4.86063 1.64621,8.93714 4.93886,12.22954 3.29248,3.29273 7.60417,6.19332 12.93509,8.70179 5.48751,2.35199 11.68067,4.62542 18.57949,6.82032 6.89859,2.0384 13.95409,4.31184 21.16651,6.82032 7.36894,2.50876 14.50283,5.40935 21.40169,8.70179 6.89855,3.29269 13.01331,7.4476 18.34431,12.46472 5.48743,4.86057 9.87752,10.81855 13.17027,17.87394 3.29238,6.89881 4.93866,15.28701 4.93885,25.16463 -1.9e-4,11.75924 -2.19523,22.65606 -6.58513,32.6905 -4.23349,9.87769 -10.50504,18.42269 -18.81468,25.63499 -8.30997,7.2123 -18.65803,12.8567 -31.04421,16.9332 -12.38645,4.0765 -26.65424,6.1148 -42.80339,6.1148 -8.3099,0 -16.54131,-0.784 -24.69426,-2.3519 -8.15309,-1.4111 -15.91413,-3.4493 -23.28316,-6.1147 -7.36912,-2.8222 -14.26783,-6.0364 -20.69614,-9.6425 -6.42837,-3.6062 -11.99437,-7.5259 -16.69803,-11.7592 l 15.05174,-24.22391 c 1.72466,-2.82215 3.8413,-5.01719 6.34996,-6.58514 2.66537,-1.56783 6.03633,-2.35177 10.11288,-2.35183 3.91968,6e-5 7.52583,1.01918 10.81844,3.05738 3.29252,1.88152 6.97705,3.99817 11.05362,6.34995 4.07645,2.1951 8.85851,4.31175 14.34619,6.34995 5.64432,1.8815 12.62143,2.8222 20.93133,2.8222 6.27145,0 11.68067,-0.7055 16.22766,-2.1166 4.54676,-1.4111 8.2313,-3.29257 11.05362,-5.64445 2.82207,-2.50857 4.86033,-5.25237 6.11477,-8.23142 1.41097,-3.13572 2.11652,-6.34989 2.11665,-9.64252 -1.3e-4,-5.33075 -1.72481,-9.64244 -5.17404,-12.93509 -3.29269,-3.44927 -7.68278,-6.42826 -13.17027,-8.93697 -5.33093,-2.50853 -11.52409,-4.78197 -18.57949,-6.82032 -7.05559,-2.03816 -14.26788,-4.31159 -21.63688,-6.82032 -7.21236,-2.50852 -14.34625,-5.4875 -21.40169,-8.93697 -6.89876,-3.44924 -13.09192,-7.76093 -18.57949,-12.93509 -5.33086,-5.33069 -9.72094,-11.83743 -13.17027,-19.52022 -3.29259,-7.68251 -4.93887,-17.01144 -4.93886,-27.98683 -1e-5,-10.03431 1.95985,-19.52004 5.87959,-28.4572 3.9197,-9.09355 9.79928,-17.08978 17.63876,-23.98871 7.8394,-6.89848 17.5603,-12.38609 29.16274,-16.46284 11.75909,-4.07627 25.32133,-6.11452 40.68674,-6.11477 17.24666,2.5e-4 32.92554,2.82244 47.03669,8.4666 14.11083,5.64464 25.7132,13.01371 34.80715,22.10725 L 367.63526,851.984"
       id="path3026"
       style="font-size:470.36688232px;font-style:normal;font-variant:normal;font-weight:800;font-stretch:normal;text-align:start;line-height:125%;letter-spacing:0px;word-spacing:0px;writing-mode:lr-tb;text-anchor:start;fill:#ffffff;fill-opacity:1;stroke:none;font-family:Lato;-inkscape-font-specification:Lato Ultra-Bold" />
    <path
       d="m 505.788,846.12838 c -1.2676,2.2182 -2.69345,3.80248 -4.27756,4.75286 -1.58446,0.95076 -3.56481,1.42604 -5.94107,1.42585 -2.69344,1.9e-4 -5.62437,-0.79195 -8.79277,-2.37642 -3.16872,-1.74252 -6.89179,-3.64366 -11.1692,-5.70343 -4.27771,-2.05936 -9.34742,-3.88129 -15.20913,-5.46578 -5.70355,-1.7425 -12.43675,-2.61386 -20.19962,-2.61406 -6.33724,2e-4 -12.11987,0.79235 -17.34791,2.37642 -5.06979,1.42606 -9.42657,3.56484 -13.07034,6.41635 -3.4855,2.69348 -6.17878,5.94126 -8.07985,9.74335 -1.90121,3.64404 -2.85178,7.60474 -2.85171,11.88213 -7e-5,5.70359 1.74264,10.45644 5.22814,14.25855 3.48535,3.80244 8.07976,7.12943 13.78327,9.98099 5.70333,2.69343 12.19888,5.14907 19.48669,7.36692 7.28759,2.21814 14.73372,4.59456 22.3384,7.12928 7.60443,2.53499 15.05055,5.46591 22.33841,8.79277 7.28754,3.32712 13.7831,7.44626 19.48669,12.35742 5.70324,4.75296 10.29766,10.6148 13.78327,17.58555 3.48523,6.81251 5.22794,15.12999 5.22813,24.95247 -1.9e-4,11.4069 -2.05975,21.94238 -6.1787,31.6065 -4.11932,9.6641 -10.1396,18.0608 -18.06084,25.1901 -7.92158,7.1293 -17.82334,12.6742 -29.70532,16.635 -11.72383,3.9607 -25.19023,5.941 -40.39924,5.941 -8.39679,0 -16.55585,-0.7921 -24.47719,-2.3764 -7.76305,-1.4259 -15.20918,-3.4062 -22.3384,-5.9411 -6.97089,-2.6932 -13.54566,-5.8618 -19.72433,-9.5057 -6.0203,-3.6438 -11.40686,-7.6045 -16.1597,-11.8821 l 11.88213,-19.4867 c 1.42583,-2.37637 3.16854,-4.1983 5.22814,-5.46578 2.21796,-1.4258 4.91124,-2.13873 8.07985,-2.13878 3.32695,5e-5 6.57473,1.10905 9.74334,3.327 3.32695,2.05961 7.12922,4.35682 11.40684,6.89166 4.43594,2.5349 9.74328,4.9113 15.92206,7.1292 6.17862,2.0597 13.86239,3.0894 23.05133,3.0894 7.60445,0 14.17923,-0.8713 19.72433,-2.6141 5.54487,-1.9011 10.13929,-4.4359 13.78327,-7.6045 3.64372,-3.16855 6.337,-6.73318 8.07985,-10.69394 1.74257,-4.11908 2.61392,-8.47586 2.61407,-13.07035 -1.5e-4,-6.17863 -1.74286,-11.24833 -5.22814,-15.20912 -3.48556,-3.96062 -8.15919,-7.36683 -14.02091,-10.21863 -5.70354,-2.85162 -12.27831,-5.38647 -19.72434,-7.60456 -7.2878,-2.2179 -14.73392,-4.59432 -22.3384,-7.12928 -7.60463,-2.53475 -15.12998,-5.46567 -22.57604,-8.79278 -7.28776,-3.32687 -13.86253,-7.52522 -19.72434,-12.59505 -5.70345,-5.22801 -10.29787,-11.48592 -13.78327,-18.77377 -3.48544,-7.44598 -5.22815,-16.47639 -5.22813,-27.09125 -2e-5,-9.66395 1.90112,-18.85279 5.70342,-27.56654 3.96068,-8.71335 9.66409,-16.39712 17.11026,-23.05133 7.60452,-6.65376 16.87257,-11.88189 27.80419,-15.68441 11.0899,-3.96047 23.84337,-5.94082 38.26045,-5.94106 16.318,2.4e-4 31.13104,2.61431 44.43916,7.8422 13.30782,5.22837 24.47701,12.35764 33.50761,21.38783 L 505.788,846.12838"
       id="path3029"
       style="font-size:475.28515625px;font-style:normal;font-variant:normal;font-weight:600;font-stretch:normal;text-align:start;line-height:125%;letter-spacing:0px;word-spacing:0px;writing-mode:lr-tb;text-anchor:start;fill:#ffffff;fill-opacity:1;stroke:none;font-family:Lato;-inkscape-font-specification:Lato Semi-Bold" />
    <path
       d="m 645.46696,896.59355 c -1.9e-4,-9.2414 -1.35456,-17.76593 -4.0631,-25.57361 -2.54958,-7.80734 -6.37367,-14.57916 -11.47227,-20.31549 -5.09896,-5.73594 -11.31311,-10.19737 -18.64245,-13.38432 -7.32966,-3.18653 -15.77452,-4.7799 -25.33461,-4.78012 -19.59858,2.2e-4 -35.05427,5.65668 -46.36711,16.96941 -11.15368,11.31312 -18.24417,27.00782 -21.27151,47.08413 l 127.15105,0 m 38.47993,113.76675 c -5.73637,6.6922 -12.34885,12.508 -19.83748,17.4474 -7.48905,4.7801 -15.4559,8.6839 -23.90057,11.7113 -8.44505,3.0274 -17.20859,5.2581 -26.29064,6.6921 -8.92303,1.4341 -17.76623,2.1511 -26.52963,2.1511 -16.73052,0 -32.26588,-2.7884 -46.60612,-8.3652 -14.18108,-5.7361 -26.5297,-14.0217 -37.04589,-24.8566 -10.35696,-10.9942 -18.48314,-24.53787 -24.37859,-40.63098 -5.73616,-16.2523 -8.60422,-34.89473 -8.6042,-55.92734 -2e-5,-16.8896 2.62904,-32.58429 7.88719,-47.08413 5.25809,-14.65883 12.74693,-27.40579 22.46654,-38.24092 9.87884,-10.8347 21.90878,-19.35923 36.08986,-25.57361 14.18091,-6.21391 30.11461,-9.32098 47.80115,-9.32123 14.81821,2.5e-4 28.44152,2.46997 40.86998,7.40918 12.58745,4.78035 23.42237,11.79118 32.50478,21.03251 9.082,9.24176 16.1725,20.63435 21.27151,34.17782 5.2579,13.54382 7.88696,28.99951 7.88719,46.36711 -2.3e-4,7.1703 -0.79692,12.03008 -2.39006,14.57935 -1.5936,2.39018 -4.54133,3.5852 -8.84321,3.58508 l -159.17782,0 c 0.47795,14.49979 2.54933,27.16708 6.21415,38.00192 3.66468,10.67566 8.68379,19.59853 15.05736,26.76864 6.53273,7.17022 14.26058,12.508 23.18356,16.0134 8.92276,3.5054 18.88132,5.2581 29.87572,5.2581 10.35676,0 19.27963,-1.195 26.76864,-3.5851 7.64801,-2.39 14.18082,-4.9394 19.59847,-7.6482 5.57661,-2.86798 10.19738,-5.49704 13.86233,-7.88715 3.82389,-2.39 7.16997,-3.58503 10.03824,-3.58508 3.82388,5e-5 6.77161,1.43408 8.84321,4.3021 l 13.38433,17.20843"
       id="path3032"
       style="font-size:478.01147461px;font-style:normal;font-variant:normal;font-weight:500;font-stretch:normal;text-align:start;line-height:125%;letter-spacing:0px;word-spacing:0px;writing-mode:lr-tb;text-anchor:start;fill:#ffffff;fill-opacity:1;stroke:none;font-family:Lato;-inkscape-font-specification:Lato Medium" />
    <text
       x="188.89853"
       y="-57.086372"
       transform="translate(0,802.36218)"
       id="text3015"
       xml:space="preserve"
       style="font-size:72px;font-style:normal;font-variant:normal;font-weight:500;font-stretch:normal;text-align:start;line-height:125%;letter-spacing:0px;word-spacing:0px;writing-mode:lr-tb;text-anchor:start;fill:#000000;fill-opacity:1;stroke:none;font-family:Lato;-inkscape-font-specification:Lato Medium"><tspan
         x="188.89853"
         y="-57.086372"
         id="tspan3017" /></text>
  </g>
</svg>
